HIERARCHY
ROOT root
{
	OFFSET	0	13.1	24.9
	CHANNELS 6  Xposition Yposition Zposition Xrotation Yrotation Zrotation
	JOINT spine_1
	{
		OFFSET	0	9.99999	0
		CHANNELS 3  Xrotation Yrotation Zrotation
		JOINT spine_2
		{
			OFFSET	0	112	-10
			CHANNELS 3  Xrotation Yrotation Zrotation
			JOINT spine_3
			{
				OFFSET	0	206.5	19.3
				CHANNELS 3  Xrotation Yrotation Zrotation
				JOINT spine_4
				{
					OFFSET	0	110.4	14.6
					CHANNELS 3  Xrotation Yrotation Zrotation
					JOINT neck_1
					{
						OFFSET	0	71.8	-50.3
						CHANNELS 3  Xrotation Yrotation Zrotation
						JOINT neck_2
						{
							OFFSET	0	86.2	-25.8
							CHANNELS 3  Xrotation Yrotation Zrotation
							JOINT head_ee
							{
								OFFSET	0	179.8	-8.7
								CHANNELS 3  Xrotation Yrotation Zrotation
								End Site
								{
									OFFSET	1	0	0
								}
							}
						}
					}
					JOINT left_clavicle
					{
						OFFSET	-43.2	22.4	-70.8
						CHANNELS 3  Xrotation Yrotation Zrotation
						JOINT left_shoulder
						{
							OFFSET	-93.9	-5.79999	48.7
							CHANNELS 3  Xrotation Yrotation Zrotation
							JOINT left_elbow
							{
								OFFSET	-291.4	-30.8	15.2
								CHANNELS 3  Xrotation Yrotation Zrotation
								JOINT left_lowarm_twist
								{
									OFFSET	-110.7	-3.89999	13.6
									CHANNELS 3  Xrotation Yrotation Zrotation
									JOINT left_hand
									{
										OFFSET	-110.7	-3.89999	13.6
										CHANNELS 3  Xrotation Yrotation Zrotation
										JOINT left_ee
										{
											OFFSET	-80.8	-5.10001	12.1
											CHANNELS 3  Xrotation Yrotation Zrotation
											End Site
											{
												OFFSET	1	0	0
											}
										}
									}
								}
							}
						}
					}
					JOINT right_clavicle
					{
						OFFSET	43.2	22.4	-70.8
						CHANNELS 3  Xrotation Yrotation Zrotation
						JOINT right_shoulder
						{
							OFFSET	93.9	-5.79999	48.7
							CHANNELS 3  Xrotation Yrotation Zrotation
							JOINT right_elbow
							{
								OFFSET	291.4	-30.8	15.2
								CHANNELS 3  Xrotation Yrotation Zrotation
								JOINT right_lowarm_twist
								{
									OFFSET	110.7	-3.89999	13.6
									CHANNELS 3  Xrotation Yrotation Zrotation
									JOINT right_hand
									{
										OFFSET	110.7	-3.89999	13.6
										CHANNELS 3  Xrotation Yrotation Zrotation
										JOINT right_ee
										{
											OFFSET	80.8	-5.10001	12.1
											CHANNELS 3  Xrotation Yrotation Zrotation
											End Site
											{
												OFFSET	1	0	0
											}
										}
									}
								}
							}
						}
					}
				}
			}
		}
	}
	JOINT left_hip
	{
		OFFSET	-82.8	-127.5	0.300001
		CHANNELS 3  Xrotation Yrotation Zrotation
		JOINT left_knee
		{
			OFFSET	-28.2	-396.7	2.2
			CHANNELS 3  Xrotation Yrotation Zrotation
			JOINT left_ankle
			{
				OFFSET	-11.7	-411.3	35.4
				CHANNELS 3  Xrotation Yrotation Zrotation
				JOINT left_toes
				{
					OFFSET	0	-60	-88.6
					CHANNELS 3  Xrotation Yrotation Zrotation
					JOINT left_foot_ee
					{
						OFFSET	-22.5	-16.5	-42.2
						CHANNELS 3  Xrotation Yrotation Zrotation
						End Site
						{
							OFFSET	1	0	0
						}
					}
				}
			}
		}
	}
	JOINT right_hip
	{
		OFFSET	82.8	-127.5	0.300001
		CHANNELS 3  Xrotation Yrotation Zrotation
		JOINT right_knee
		{
			OFFSET	28.2	-396.7	2.2
			CHANNELS 3  Xrotation Yrotation Zrotation
			JOINT right_ankle
			{
				OFFSET	11.7	-411.3	35.4
				CHANNELS 3  Xrotation Yrotation Zrotation
				JOINT right_toes
				{
					OFFSET	0	-60	-88.6
					CHANNELS 3  Xrotation Yrotation Zrotation
					JOINT right_foot_ee
					{
						OFFSET	22.5	-16.5	-42.2
						CHANNELS 3  Xrotation Yrotation Zrotation
						End Site
						{
							OFFSET	1	0	0
						}
					}
				}
			}
		}
	}
}
MOTION
Frames: 16
Frame Time: 0.02
3033.91062507 681.303 -1933.38941121 -16.3548084328 13.1440368367 5.90597198937 6.72097 0.0562177 0.137892 6.72098 0.0473294 0.14119 6.72108 0.033803 0.145024 6.72106 0.0562826 0.137865 -10.6582 3.17057 0.0765352 -10.6715 5.93211 0.896636 -0.0 0.0 -0.0 3.85398 7.13619 7.74841 -87.7445 -75.3902 -12.8028 0.721467 -19.6666 0.125052 49.3579 -0.923225 -6.04491 -11.7379 31.8994 -64.2746 -0.0 0.0 -0.0 4.95568 20.2241 -8.32053 -22.0344 31.4695 -80.4396 0.411172 11.5129 -0.0414497 -50.3295 4.11045 -4.70002 -7.43857 -28.986 30.4609 0.0 0.0 0.0 33.5568 -17.0496 7.13194 -19.2867 0.303444 2.93019 42.1817 25.654 -5.39539 4.93638 -0.0 -0.0 -0.0 0.0 -0.0 42.7293 22.3093 -9.65311 -60.3627 2.23928 -8.56529 12.6744 -12.0986 1.7895 4.19346 -0.0 -0.0 0.0 0.0 0.0 
3028.37078564 681.303 -1930.31146131 -16.4381472956 14.3037335853 6.25723335162 6.72097 0.0562177 0.137892 6.72098 0.0473294 0.14119 6.72108 0.033803 0.145024 6.72106 0.0562826 0.137865 -10.6582 3.17057 0.0765352 -10.6715 5.93211 0.896636 -0.0 0.0 -0.0 3.85398 7.13619 7.74841 -87.7445 -75.3902 -12.8028 0.721467 -19.6666 0.125052 49.3579 -0.923225 -6.04491 -11.7379 31.8994 -64.2746 -0.0 0.0 -0.0 4.95568 20.2241 -8.32053 -22.0344 31.4695 -80.4396 0.411172 11.5129 -0.0414497 -50.3295 4.11045 -4.70002 -7.43857 -28.986 30.4609 0.0 0.0 0.0 33.5568 -17.0496 7.13194 -19.2867 0.303444 2.93019 42.1817 25.654 -5.39539 4.93638 -0.0 -0.0 -0.0 0.0 -0.0 42.7293 22.3093 -9.65311 -60.3627 2.23928 -8.56529 12.6744 -12.0986 1.7895 4.19346 -0.0 -0.0 0.0 0.0 0.0 
3019.27264426 681.303 -1924.91582803 -16.5947777875 16.23824048 6.85182722753 6.72097 0.0562177 0.137892 6.72098 0.0473294 0.14119 6.72108 0.033803 0.145024 6.72106 0.0562826 0.137865 -10.6582 3.17057 0.0765352 -10.6715 5.93211 0.896636 -0.0 0.0 -0.0 3.85398 7.13619 7.74841 -87.7445 -75.3902 -12.8028 0.721467 -19.6666 0.125052 49.3579 -0.923225 -6.04491 -11.7379 31.8994 -64.2746 -0.0 0.0 -0.0 4.95568 20.2241 -8.32053 -22.0344 31.4695 -80.4396 0.411172 11.5129 -0.0414497 -50.3295 4.11045 -4.70002 -7.43857 -28.986 30.4609 0.0 0.0 0.0 33.5568 -17.0496 7.13194 -19.2867 0.303444 2.93019 42.1817 25.654 -5.39539 4.93638 -0.0 -0.0 -0.0 0.0 -0.0 42.7293 22.3093 -9.65311 -60.3627 2.23928 -8.56529 12.6744 -12.0986 1.7895 4.19346 -0.0 -0.0 0.0 0.0 0.0 
2979.20683726 689.222 -1932.41973702 -16.4344663629 20.0033620095 7.35486882616 6.27337 0.123882 0.0192933 6.27336 0.122404 0.0271372 6.27343 0.118994 0.0394909 6.27345 0.123737 0.0202024 -12.2601 3.2446 1.4321 -12.2698 5.24146 2.2991 -0.0 0.0 -0.0 4.08908 6.91585 8.1654 -81.3082 -75.3611 -10.2372 0.651095 -17.8763 0.102404 45.1388 -0.643176 -5.58327 -12.0389 32.4425 -67.5696 -0.0 0.0 -0.0 4.93585 20.8158 -8.22456 -22.6752 31.5641 -81.0729 0.306647 8.63761 -0.0231582 -50.6298 4.14577 -4.71544 -7.42783 -29.5233 29.8342 0.0 0.0 0.0 30.3576 -15.024 6.92501 -17.2573 0.318206 2.61918 39.004 26.2726 -5.11321 5.24085 -0.0 -0.0 -0.0 0.0 -0.0 51.1252 17.9323 -10.0618 -60.5686 2.26169 -8.58779 9.74999 -11.3251 1.38954 4.26772 -0.0 -0.0 0.0 0.0 0.0 
2913.6311149 693.217 -1969.38697687 -14.6660866299 18.4610223197 4.62123611087 6.16063 0.270494 0.239632 6.16063 0.254697 0.256359 6.16176 0.226651 0.28146 6.16175 0.268258 0.242133 -11.8947 3.68145 0.101658 -11.9193 6.91226 1.12727 -0.0 0.0 -0.0 4.77589 6.67582 9.40622 -77.828 -74.1505 -11.6553 0.523618 -14.5414 0.0668052 35.7853 -0.148386 -4.4955 -11.9995 31.9419 -68.9169 -0.0 0.0 -0.0 5.17265 23.4782 -8.48958 -25.4834 32.3156 -84.2499 0.18996 5.37586 -0.00891817 -51.8657 4.29197 -4.7769 -7.48942 -28.8556 30.9304 0.0 0.0 0.0 23.3397 -9.47843 11.4744 -18.9323 0.306816 2.87591 35.3182 24.6371 -4.68532 4.77571 -0.0 -0.0 -0.0 0.0 -0.0 56.929 17.6257 -8.81019 -56.3876 1.8228 -8.11558 5.61732 -13.9233 0.813912 4.13439 -0.0 -0.0 0.0 0.0 0.0 
2889.66483954 687.283 -1977.48029896 -14.6328216521 19.4430033578 3.82734864609 5.94406 0.297416 0.418332 5.94412 0.270194 0.436409 5.9461 0.221597 0.462982 5.94592 0.291935 0.422175 -11.9231 3.47803 -0.813873 -11.9471 7.1176 0.191757 -0.0 0.0 -0.0 5.10256 6.68673 10.0023 -78.2091 -73.6186 -13.042 0.501752 -13.9584 0.0614229 32.6427 -0.0228596 -4.11395 -11.9879 31.8412 -69.1158 -0.0 0.0 -0.0 5.16955 24.2361 -8.40902 -26.1767 32.5434 -85.1003 0.174088 4.929 -0.00749273 -52.201 4.33185 -4.79304 -7.57726 -29.0867 31.2661 0.0 0.0 0.0 21.5696 -8.68047 12.8882 -19.6856 0.299247 2.99126 34.8864 24.5168 -4.63635 4.62324 -0.0 -0.0 -0.0 0.0 -0.0 57.7438 18.1055 -8.26968 -53.0895 1.50175 -7.72154 3.61893 -15.3884 0.528795 4.07296 -0.0 -0.0 0.0 0.0 0.0 
2887.09618727 687.283 -1975.06513213 -14.6761890638 19.9068225499 3.95615538707 5.94406 0.297416 0.418332 5.94412 0.270194 0.436409 5.9461 0.221597 0.462982 5.94592 0.291935 0.422175 -11.9231 3.47803 -0.813873 -11.9471 7.1176 0.191757 -0.0 0.0 -0.0 5.10256 6.68673 10.0023 -78.2091 -73.6186 -13.042 0.501752 -13.9584 0.0614229 32.6427 -0.0228596 -4.11395 -11.9879 31.8412 -69.1158 -0.0 0.0 -0.0 5.16955 24.2361 -8.40902 -26.1767 32.5434 -85.1003 0.174088 4.929 -0.00749273 -52.201 4.33185 -4.79304 -7.57726 -29.0867 31.2661 0.0 0.0 0.0 21.5696 -8.68047 12.8882 -19.6856 0.299247 2.99126 34.8864 24.5168 -4.63635 4.62324 -0.0 -0.0 -0.0 0.0 -0.0 57.7438 18.1055 -8.26968 -53.0895 1.50175 -7.72154 3.61893 -15.3884 0.528795 4.07296 -0.0 -0.0 0.0 0.0 0.0 
2875.43415492 693.167 -1987.47688331 -14.3774139224 20.0028089599 3.21243997394 5.75192 0.353169 0.776014 5.7522 0.303075 0.796913 5.75608 0.212718 0.825635 5.7553 0.340438 0.781683 -12.3514 3.52353 -1.17979 -12.3785 7.4409 -0.119206 -0.0 0.0 -0.0 5.43021 6.51768 10.6006 -79.6059 -73.3702 -16.1665 0.487452 -13.5755 0.0580197 30.026 0.0655516 -3.79147 -11.9853 31.7962 -69.2619 -0.0 0.0 -0.0 5.65903 24.6712 -9.43147 -26.1656 32.7113 -86.2029 0.183479 5.19349 -0.00832127 -52.5197 4.36985 -4.80815 -7.64152 -29.1758 31.596 0.0 0.0 0.0 20.4685 -8.17393 13.7124 -19.1841 0.304454 2.91449 34.5834 24.433 -4.60185 4.41172 -0.0 -0.0 -0.0 0.0 -0.0 58.6068 18.6573 -7.83457 -49.1491 1.14887 -7.22788 2.20108 -16.3165 0.323492 4.01114 -0.0 -0.0 0.0 0.0 0.0 
2874.7107629 693.167 -1986.78966902 -14.3892462048 20.1291232481 3.24692616616 5.75192 0.353169 0.776014 5.7522 0.303075 0.796913 5.75608 0.212718 0.825635 5.7553 0.340438 0.781683 -12.3514 3.52353 -1.17979 -12.3785 7.4409 -0.119206 -0.0 0.0 -0.0 5.43021 6.51768 10.6006 -79.6059 -73.3702 -16.1665 0.487452 -13.5755 0.0580197 30.026 0.0655516 -3.79147 -11.9853 31.7962 -69.2619 -0.0 0.0 -0.0 5.65903 24.6712 -9.43147 -26.1656 32.7113 -86.2029 0.183479 5.19349 -0.00832127 -52.5197 4.36985 -4.80815 -7.64152 -29.1758 31.596 0.0 0.0 0.0 20.4685 -8.17393 13.7124 -19.1841 0.304454 2.91449 34.5834 24.433 -4.60185 4.41172 -0.0 -0.0 -0.0 0.0 -0.0 58.6068 18.6573 -7.83457 -49.1491 1.14887 -7.22788 2.20108 -16.3165 0.323492 4.01114 -0.0 -0.0 0.0 0.0 0.0 
2863.51526757 679.021 -2012.27446279 -15.2867879853 21.724802092 4.12633977885 5.66691 0.407589 1.27431 5.66776 0.325682 1.29766 5.67421 0.177712 1.32604 5.67197 0.384888 1.28135 -13.1769 4.3402 -2.23664 -13.2238 9.65526 -0.82549 -0.0 0.0 -0.0 4.93945 7.60894 9.71658 -81.3033 -73.091 -22.9244 0.392631 -11.0067 0.0378294 21.9213 0.244683 -2.77252 -11.4699 29.1764 -69.3242 -0.0 0.0 -0.0 7.25326 24.3693 -12.9459 -26.5543 32.5003 -86.2323 0.178801 5.06175 -0.0079031 -53.8816 4.53314 -4.87035 -7.98864 -27.4331 35.9205 0.0 0.0 0.0 16.5156 -10.9666 13.6019 -9.28269 0.269472 1.39756 31.5826 24.802 -4.28284 2.85267 -0.0 -0.0 -0.0 0.0 -0.0 56.3419 19.2211 -7.63914 -30.3765 -0.0294626 -4.60737 -7.33784 -17.0114 -1.10139 2.45919 -0.0 -0.0 0.0 0.0 0.0 
2855.16915004 681.067 -2027.10022694 -15.7820645769 22.7369834016 4.00635364037 5.72787 0.440719 1.51876 5.72909 0.343195 1.54372 5.73699 0.169184 1.57233 5.73378 0.415351 1.52589 -13.0522 5.29083 -1.33304 -13.124 10.8995 0.315 -0.0 0.0 -0.0 4.25902 7.17692 8.48014 -80.8342 -73.1047 -24.0213 0.368688 -10.3505 0.0333926 19.297 0.271599 -2.43843 -11.2449 27.8661 -69.6752 -0.0 0.0 -0.0 7.93838 24.4256 -14.447 -26.7195 32.3445 -85.5681 0.193097 5.46411 -0.00921452 -54.9814 4.66604 -4.91774 -8.1424 -27.2736 37.2263 0.0 0.0 0.0 14.1028 -12.279 12.8302 -6.36971 0.209365 0.954642 33.2833 24.8233 -4.47204 2.6463 -0.0 -0.0 -0.0 0.0 -0.0 53.8594 19.339 -7.55979 -17.6869 -0.316 -2.68506 -10.0985 -15.6772 -1.51698 1.00253 -0.0 -0.0 0.0 0.0 0.0 
2845.83100914 675.513 -2042.11757158 -16.2355959396 23.0388350653 4.58424600988 5.75266 0.452179 1.64444 5.7541 0.346638 1.66987 5.76261 0.159323 1.69801 5.75884 0.425455 1.65156 -12.9502 5.94984 -0.732591 -13.0372 11.7755 1.07789 -0.0 0.0 -0.0 3.78488 6.82557 7.61222 -80.5301 -73.0954 -24.7947 0.351087 -9.86628 0.0303034 17.4133 0.281472 -2.19804 -11.0933 26.9481 -69.9134 -0.0 0.0 -0.0 8.48699 24.3588 -15.6647 -26.8286 32.242 -85.3518 0.20083 5.68152 -0.00996546 -55.7531 4.75981 -4.94946 -8.24803 -27.1634 38.1432 0.0 0.0 0.0 12.4259 -13.0706 12.2775 -4.31699 0.153515 0.644586 34.5047 24.8299 -4.60435 2.5159 -0.0 -0.0 -0.0 0.0 -0.0 52.049 19.4414 -7.4463 -8.8063 -0.261184 -1.32493 -11.8744 -14.6857 -1.78411 0.0157653 -0.0 -0.0 0.0 0.0 0.0 
2827.45409518 675.176 -2065.04624 -16.680335105 22.9169717554 5.03087798405 5.73798 0.267924 1.42959 5.7391 0.176422 1.44374 5.74234 0.0146583 1.4544 5.73947 0.244146 1.43384 -11.8881 5.40126 -2.92756 -11.9384 12.1246 -1.30039 -0.0 0.0 -0.0 3.80996 6.47094 7.64409 -80.1841 -74.0357 -23.6254 0.345162 -9.70298 0.0292965 13.7246 0.277903 -1.727 -11.1383 27.1445 -70.1528 -0.0 0.0 -0.0 8.85956 23.8403 -16.5394 -29.2139 31.8984 -84.806 0.191902 5.4305 -0.00910101 -56.3888 4.83737 -4.97464 -8.53773 -28.3053 38.9169 0.0 0.0 0.0 11.8904 -13.3606 12.9407 -5.94571 0.19874 0.89044 38.6656 23.9661 -5.00632 2.97568 -0.0 -0.0 -0.0 0.0 -0.0 50.415 19.4773 -7.56863 -2.75564 -0.103611 -0.410168 -11.4511 -13.6734 -1.71676 1.12261 -0.0 -0.0 0.0 0.0 0.0 
2833.3764797 675.176 -2070.19953377 -16.5793081119 22.1007462487 4.76698732658 5.73798 0.267924 1.42959 5.7391 0.176422 1.44374 5.74234 0.0146583 1.4544 5.73947 0.244146 1.43384 -11.8881 5.40126 -2.92756 -11.9384 12.1246 -1.30039 -0.0 0.0 -0.0 3.80996 6.47094 7.64409 -80.1841 -74.0357 -23.6254 0.345162 -9.70298 0.0292965 13.7246 0.277903 -1.727 -11.1383 27.1445 -70.1528 -0.0 0.0 -0.0 8.85956 23.8403 -16.5394 -29.2139 31.8984 -84.806 0.191902 5.4305 -0.00910101 -56.3888 4.83737 -4.97464 -8.53773 -28.3053 38.9169 0.0 0.0 0.0 11.8904 -13.3606 12.9407 -5.94571 0.19874 0.89044 38.6656 23.9661 -5.00632 2.97568 -0.0 -0.0 -0.0 0.0 -0.0 50.415 19.4773 -7.56863 -2.75564 -0.103611 -0.410168 -11.4511 -13.6734 -1.71676 1.12261 -0.0 -0.0 0.0 0.0 0.0 
2757.61103147 663.255 -2124.76160292 -16.7106852251 27.2106707872 6.09456858376 5.56606 0.330199 1.51781 5.56731 0.232959 1.53574 5.57226 0.0560171 1.55229 5.56902 0.300441 1.52397 -11.5706 7.39358 -6.81863 -11.5952 18.4215 -4.54188 -0.0 0.0 -0.0 4.8952 8.92767 9.65081 -77.2794 -74.8481 -15.8828 0.246727 -6.96838 0.0150221 5.04075 0.150131 -0.626164 -11.4807 29.1992 -69.4659 -0.0 0.0 -0.0 9.5034 27.101 -17.6357 -29.4518 32.5074 -84.0353 0.386628 10.8424 -0.0366918 -58.6273 5.11255 -5.0564 -8.66046 -30.3839 37.1865 0.0 0.0 0.0 9.12686 -12.805 13.4688 -14.0355 0.318999 2.12494 42.0689 23.5316 -5.314 5.25431 -0.0 -0.0 -0.0 0.0 -0.0 49.9994 20.8786 -7.18523 -8.1109 -0.248002 -1.21904 -8.14408 3.7215 -1.23976 6.23819 -0.0 -0.0 0.0 0.0 0.0 
2759.47137307 663.255 -2126.46765485 -16.6763515973 26.9869323208 6.01919739352 5.56606 0.330199 1.51781 5.56731 0.232959 1.53574 5.57226 0.0560171 1.55229 5.56902 0.300441 1.52397 -11.5706 7.39358 -6.81863 -11.5952 18.4215 -4.54188 -0.0 0.0 -0.0 4.8952 8.92767 9.65081 -77.2794 -74.8481 -15.8828 0.246727 -6.96838 0.0150221 5.04075 0.150131 -0.626164 -11.4807 29.1992 -69.4659 -0.0 0.0 -0.0 9.5034 27.101 -17.6357 -29.4518 32.5074 -84.0353 0.386628 10.8424 -0.0366918 -58.6273 5.11255 -5.0564 -8.66046 -30.3839 37.1865 0.0 0.0 0.0 9.12686 -12.805 13.4688 -14.0355 0.318999 2.12494 42.0689 23.5316 -5.314 5.25431 -0.0 -0.0 -0.0 0.0 -0.0 49.9994 20.8786 -7.18523 -8.1109 -0.248002 -1.21904 -8.14408 3.7215 -1.23976 6.23819 -0.0 -0.0 0.0 0.0 0.0 
